<?xml version="1.0" standalone="no"?>
<!DOCTYPE svg PUBLIC "-//W3C//DTD SVG 20010904//EN"
 "http://www.w3.org/TR/2001/REC-SVG-20010904/DTD/svg10.dtd">
<svg version="1.0" xmlns="http://www.w3.org/2000/svg"
 width="1096.000000pt" height="908.000000pt" viewBox="0 0 1096.000000 908.000000"
 preserveAspectRatio="xMidYMid meet">

<g transform="translate(0.000000,908.000000) scale(0.100000,-0.100000)"
fill="#000000" stroke="none">
<path d="M402 8528 l3 -113 73 -3 c66 -3 74 -1 97 22 29 29 32 58 9 81 -13 12
-14 19 -5 28 6 6 11 23 11 38 0 43 -32 59 -118 59 l-73 0 3 -112z m123 47 c0
-15 -8 -21 -32 -23 -27 -3 -33 0 -33 16 0 26 10 33 40 30 17 -2 25 -9 25 -23z
m3 -89 c4 -20 -13 -36 -41 -36 -20 0 -32 23 -23 46 8 22 60 15 64 -10z"/>
<path d="M630 8440 c0 -25 4 -30 25 -30 21 0 25 5 25 30 0 25 -4 30 -25 30
-21 0 -25 -5 -25 -30z"/>
<path d="M455 6450 c-40 -40 -54 -60 -42 -60 14 0 17 -10 17 -55 0 -54 0 -55
30 -55 28 0 30 2 30 40 0 38 2 40 30 40 28 0 30 -2 30 -40 0 -39 1 -40 35 -40
l35 0 0 56 c0 34 4 53 10 49 6 -3 10 -2 10 2 0 9 -112 123 -121 123 -2 0 -31
-27 -64 -60z m113 -3 c39 -40 42 -46 42 -100 0 -54 -1 -57 -25 -57 -22 0 -25
4 -25 40 l0 40 -40 0 -40 0 0 -40 c0 -33 -3 -40 -20 -40 -18 0 -20 7 -20 62 0
58 2 65 37 100 20 21 40 38 43 38 3 0 25 -19 48 -43z"/>
<path d="M474 5926 c-22 -17 -25 -95 -4 -121 15 -18 15 -19 -32 -38 -27 -11
-38 -22 -38 -36 0 -20 5 -21 78 -19 l77 2 -72 3 c-40 2 -73 8 -73 13 0 5 18
19 41 30 31 17 39 25 33 38 -14 32 -16 102 -4 117 15 18 61 20 78 3 14 -14 16
-104 2 -113 -16 -10 -12 -23 10 -35 14 -7 20 -7 20 0 0 5 -7 10 -15 10 -18 0
-18 1 0 36 21 40 19 80 -5 104 -23 23 -68 26 -96 6z"/>
<path d="M5901 5910 c-64 -29 -127 -84 -157 -135 -50 -87 -39 -226 19 -233 19
-2 27 -9 27 -23 0 -17 -3 -18 -21 -9 -31 17 -35 4 -5 -15 32 -21 32 -29 4 -43
-23 -10 -23 -11 4 -11 23 -1 29 5 38 37 20 75 48 104 157 157 120 59 131 67
153 120 l18 40 7 -38 c4 -21 5 -51 1 -67 -4 -22 -2 -30 9 -30 7 0 17 5 20 10
10 16 25 1 25 -26 0 -25 15 -33 23 -11 2 6 7 -31 11 -83 5 -52 11 -113 15
-135 l7 -40 11 33 c8 20 19 32 30 32 17 1 17 1 1 11 -24 13 -23 31 3 47 12 7
18 16 15 19 -3 3 -12 0 -21 -7 -20 -17 -20 6 0 47 8 17 18 57 21 90 11 101
-22 166 -105 207 -25 13 -66 34 -91 47 -63 33 -160 37 -219 9z"/>
<path d="M612 5749 c-8 -13 -19 -18 -29 -15 -13 5 -14 4 -3 -9 16 -20 15 -20
40 15 12 17 18 30 13 30 -4 0 -14 -9 -21 -21z"/>
<path d="M6080 5605 c-17 -20 -15 -21 53 -30 56 -6 58 -6 48 13 -18 34 -78 44
-101 17z"/>
<path d="M5893 5586 c-15 -13 -26 -26 -23 -29 5 -4 110 13 119 20 2 1 -2 9 -9
18 -18 22 -55 18 -87 -9z"/>
<path d="M5917 5533 c-4 -3 -7 -17 -7 -30 0 -28 23 -27 28 1 4 20 -11 40 -21
29z"/>
<path d="M6124 5526 c-8 -21 3 -49 16 -41 5 3 10 15 10 25 0 25 -18 36 -26 16z"/>
<path d="M6020 5475 c-14 -17 -5 -45 17 -52 18 -6 27 37 11 54 -13 12 -16 12
-28 -2z"/>
<path d="M5885 5449 c-4 -6 -5 -12 -2 -15 2 -3 7 2 10 11 7 17 1 20 -8 4z"/>
<path d="M5925 5449 c-4 -6 -5 -12 -2 -15 2 -3 7 2 10 11 7 17 1 20 -8 4z"/>
<path d="M6137 5439 c4 -13 8 -18 11 -10 2 7 -1 18 -6 23 -8 8 -9 4 -5 -13z"/>
<path d="M6167 5439 c4 -13 8 -18 11 -10 2 7 -1 18 -6 23 -8 8 -9 4 -5 -13z"/>
<path d="M5960 5390 c8 -5 22 -9 30 -9 10 0 8 3 -5 9 -27 12 -43 12 -25 0z"/>
<path d="M6023 5373 c9 -2 25 -2 35 0 9 3 1 5 -18 5 -19 0 -27 -2 -17 -5z"/>
<path d="M483 5351 c-4 -14 -15 -21 -42 -23 l-36 -3 0 -90 0 -90 115 0 115 0
0 90 0 90 -36 3 c-27 2 -38 9 -42 23 -4 14 -14 19 -37 19 -23 0 -33 -5 -37
-19z m67 -11 c0 -5 -13 -10 -30 -10 -16 0 -30 5 -30 10 0 6 14 10 30 10 17 0
30 -4 30 -10z m80 -50 c0 -29 -2 -30 -45 -30 -25 0 -45 5 -45 10 0 6 -9 10
-20 10 -11 0 -20 -4 -20 -10 0 -5 -20 -10 -45 -10 -43 0 -45 1 -45 30 l0 30
110 0 110 0 0 -30z m-100 -40 c0 -11 -4 -20 -10 -20 -5 0 -10 9 -10 20 0 11 5
20 10 20 6 0 10 -9 10 -20z m-30 -15 c0 -8 9 -15 20 -15 11 0 20 7 20 15 0 11
12 15 45 15 l45 0 0 -45 0 -45 -110 0 -110 0 0 45 0 45 45 0 c33 0 45 -4 45
-15z"/>
<path d="M6040 5212 c-89 -3 -117 -11 -80 -22 32 -10 139 -11 163 -1 37 14 -6
26 -83 23z"/>
<path d="M5905 5163 c-11 -8 -44 -26 -72 -40 -29 -13 -53 -28 -53 -32 0 -14
111 -51 182 -61 81 -12 182 0 260 31 29 11 56 23 60 27 4 4 -24 23 -63 43 -66
34 -70 35 -80 18 -22 -42 -113 -63 -160 -38 -11 5 -28 23 -37 39 -16 26 -19
27 -37 13z"/>
<path d="M451 4751 l-53 -27 25 -17 c19 -12 27 -27 29 -54 3 -33 7 -39 36 -47
19 -5 45 -5 65 0 28 8 33 15 37 49 3 21 11 41 19 43 11 4 13 -3 8 -32 -4 -25
-2 -36 7 -36 8 0 12 16 12 48 -1 46 -2 48 -51 74 -62 34 -68 34 -134 -1z m120
-3 c22 -12 39 -24 39 -28 0 -3 -20 -16 -45 -28 l-45 -22 -45 22 c-25 12 -45
25 -45 28 0 9 73 49 89 50 7 0 31 -10 52 -22z m-26 -80 c35 16 35 16 35 -13 0
-31 -39 -49 -82 -40 -23 5 -28 12 -28 36 0 27 1 28 25 17 19 -8 31 -8 50 0z"/>
<path d="M6820 4720 c-14 -26 1 -26 31 0 l24 19 -22 1 c-12 0 -27 -9 -33 -20z"/>
<path d="M5202 4714 c-42 -29 -25 -57 56 -93 8 -3 14 -10 15 -16 3 -14 -43
-19 -56 -6 -16 16 -37 14 -37 -4 0 -18 31 -35 65 -35 39 0 65 18 65 44 0 27
-13 39 -55 53 -34 11 -47 43 -18 43 11 0 24 -5 30 -11 6 -6 19 -9 29 -7 17 3
17 5 -4 26 -26 26 -59 28 -90 6z"/>
<path d="M5480 4645 c0 -69 3 -85 15 -85 12 0 15 16 15 85 0 69 -3 85 -15 85
-12 0 -15 -16 -15 -85z"/>
<path d="M5820 4720 c0 -5 7 -10 15 -10 8 0 15 5 15 10 0 6 -7 10 -15 10 -8 0
-15 -4 -15 -10z"/>
<path d="M6100 4646 c0 -78 2 -87 18 -84 10 2 18 14 20 31 4 36 28 35 47 -3 9
-16 22 -30 30 -30 19 0 19 4 0 39 -13 26 -13 30 0 41 19 16 19 54 0 70 -9 7
-38 15 -65 18 l-50 5 0 -87z m90 29 c0 -20 -5 -25 -25 -25 -20 0 -25 5 -25 25
0 20 5 25 25 25 20 0 25 -5 25 -25z"/>
<path d="M6710 4720 c0 -5 7 -10 15 -10 8 0 15 5 15 10 0 6 -7 10 -15 10 -8 0
-15 -4 -15 -10z"/>
<path d="M5714 4679 c-40 -14 -39 -31 0 -24 24 5 36 3 36 -4 0 -6 -14 -14 -30
-18 -17 -3 -35 -14 -41 -25 -17 -31 5 -47 62 -46 l49 1 0 42 c0 61 -31 91 -76
74z m36 -73 c0 -19 -17 -29 -37 -22 -12 5 -13 9 -3 21 16 19 40 19 40 1z"/>
<path d="M5956 4683 c-3 -3 -19 -6 -36 -5 l-30 1 0 -60 c0 -52 2 -60 18 -57
12 2 18 16 22 48 4 37 9 45 25 45 17 0 20 -8 23 -47 2 -34 7 -48 18 -48 10 0
14 13 14 48 0 26 -4 52 -8 58 -9 14 -38 24 -46 17z"/>
<path d="M6290 4680 c-60 -15 -43 -120 20 -120 38 0 60 24 60 64 0 46 -32 69
-80 56z m48 -51 c3 -27 -20 -55 -38 -44 -5 3 -10 22 -10 41 0 31 3 35 23 32
15 -2 23 -11 25 -29z"/>
<path d="M6571 4671 c-42 -42 -10 -119 44 -105 19 5 25 2 25 -10 0 -22 -26
-31 -45 -16 -8 6 -22 10 -31 8 -17 -3 -17 -4 0 -20 20 -20 58 -23 87 -8 16 9
19 22 19 85 0 71 -1 75 -22 74 -13 -1 -31 2 -40 5 -11 5 -24 0 -37 -13z m64
-46 c0 -23 -5 -31 -21 -33 -24 -3 -35 16 -27 48 4 14 12 20 27 18 16 -2 21
-10 21 -33z"/>
<path d="M6799 4676 c-31 -15 -40 -83 -13 -103 24 -17 56 -16 80 2 18 14 17
15 -20 13 -24 -2 -41 2 -43 10 -3 8 8 12 36 12 36 0 41 3 41 24 0 39 -43 61
-81 42z m49 -33 c2 -8 -6 -13 -22 -13 -17 0 -26 5 -26 16 0 19 41 16 48 -3z"/>
<path d="M5355 4624 c18 -41 22 -61 15 -74 -14 -26 -13 -32 6 -28 21 4 88 158
69 158 -8 0 -23 -17 -34 -37 l-19 -38 -15 38 c-9 20 -23 37 -31 37 -13 0 -11
-10 9 -56z"/>
<path d="M5540 4676 c0 -2 10 -29 21 -60 28 -73 47 -73 76 1 13 31 21 59 18
61 -11 11 -34 -10 -40 -37 -9 -41 -21 -39 -35 4 -6 19 -18 35 -26 35 -8 0 -14
-2 -14 -4z"/>
<path d="M5820 4620 c0 -47 3 -60 15 -60 12 0 15 13 15 60 0 47 -3 60 -15 60
-12 0 -15 -13 -15 -60z"/>
<path d="M6400 4639 c0 -65 12 -78 70 -77 l50 1 0 59 c0 45 -3 58 -15 58 -11
0 -15 -11 -15 -40 0 -28 -5 -42 -19 -49 -25 -14 -31 -5 -31 46 0 36 -3 43 -20
43 -17 0 -20 -7 -20 -41z"/>
<path d="M6710 4620 c0 -47 3 -60 15 -60 12 0 15 13 15 60 0 47 -3 60 -15 60
-12 0 -15 -13 -15 -60z"/>
<path d="M6624 4397 c-3 -13 -4 -41 -1 -63 3 -35 4 -34 5 12 1 27 7 55 14 62
9 9 9 12 0 12 -6 0 -14 -11 -18 -23z"/>
<path d="M4890 4355 c0 -48 3 -55 19 -55 28 0 51 10 51 23 0 7 -4 7 -12 -1 -7
-7 -20 -12 -30 -12 -15 0 -18 8 -18 45 0 41 2 45 25 45 19 0 26 -7 34 -32 5
-18 10 -25 10 -15 2 34 -18 57 -49 57 -30 0 -30 -1 -30 -55z"/>
<path d="M5253 4355 c0 -33 2 -45 4 -27 2 18 2 45 0 60 -2 15 -4 0 -4 -33z"/>
<path d="M5861 4353 c1 -32 4 -46 6 -31 3 20 11 28 31 31 l27 4 -27 2 c-21 1
-28 6 -28 20 0 15 8 21 33 24 31 4 31 4 -5 5 l-38 2 1 -57z"/>
<path d="M6167 4403 c-16 -15 -5 -35 28 -49 19 -8 35 -19 35 -24 0 -17 -31
-24 -51 -11 -11 6 -19 7 -19 1 0 -18 51 -24 67 -7 20 20 5 42 -33 51 -32 8
-26 31 9 31 14 -1 23 3 21 7 -6 10 -48 11 -57 1z"/>
<path d="M6269 4395 c-7 -31 5 -88 19 -91 7 -1 8 0 2 3 -15 7 -13 63 3 63 8 0
9 3 1 8 -6 4 -13 14 -16 22 -3 11 -6 9 -9 -5z"/>
<path d="M6503 4355 c0 -33 2 -49 4 -37 l5 24 26 -24 27 -23 -22 25 c-22 25
-22 27 -5 45 17 19 17 19 -5 1 -21 -18 -22 -18 -26 16 -2 18 -4 6 -4 -27z"/>
<path d="M6708 4403 c28 -4 32 -8 32 -33 0 -57 -26 -78 -60 -47 -12 10 -12 9
-1 -5 31 -42 71 -10 71 56 0 35 -1 36 -37 34 -37 -1 -37 -1 -5 -5z"/>
<path d="M7172 4380 c0 -14 2 -19 5 -12 2 6 2 18 0 25 -3 6 -5 1 -5 -13z"/>
<path d="M4994 4366 c-14 -36 23 -83 46 -60 8 8 4 10 -11 10 -12 -1 -24 5 -26
12 -3 8 6 12 27 12 25 0 31 3 26 16 -3 9 -6 18 -6 20 0 2 -5 4 -11 4 -8 0 -8
-5 1 -15 11 -13 8 -15 -14 -15 -27 0 -35 15 -13 23 9 4 9 6 -1 6 -7 1 -15 -5
-18 -13z"/>
<path d="M5076 4367 c3 -10 9 -15 12 -12 3 3 0 11 -7 18 -10 9 -11 8 -5 -6z"/>
<path d="M5164 4354 c-9 -36 17 -61 48 -47 22 11 22 11 -6 10 -16 -1 -31 4
-33 11 -3 8 6 12 26 12 17 0 31 4 31 8 0 5 -15 6 -32 4 -30 -5 -32 -3 -19 12
8 10 9 16 2 16 -6 0 -14 -12 -17 -26z"/>
<path d="M5294 4366 c-15 -40 21 -81 50 -57 9 8 16 23 15 35 -1 19 -2 18 -8
-4 -10 -35 -45 -34 -49 2 -3 22 1 27 25 31 l28 4 -28 2 c-16 0 -30 -5 -33 -13z"/>
<path d="M5391 4363 c0 -10 3 -13 6 -5 6 15 39 16 46 2 3 -6 4 -5 3 2 -1 7
-15 14 -29 16 -21 3 -27 -1 -26 -15z"/>
<path d="M5481 4321 c1 -31 4 -46 6 -35 3 15 10 20 22 17 23 -6 43 20 39 49
-2 18 -10 23 -35 24 l-33 1 1 -56z m57 22 c-3 -31 -34 -44 -44 -19 -9 24 3 46
26 46 17 0 21 -5 18 -27z"/>
<path d="M5574 4354 c-9 -36 17 -61 48 -47 22 11 22 11 -6 10 -16 -1 -31 4
-33 11 -3 8 6 12 26 12 17 0 31 4 31 8 0 5 -15 6 -32 4 -30 -5 -32 -3 -19 12
8 10 9 16 2 16 -6 0 -14 -12 -17 -26z"/>
<path d="M5718 4348 c-2 -27 -7 -33 -25 -32 -12 0 -20 -3 -17 -8 3 -4 16 -7
29 -6 22 2 25 7 25 40 0 47 -8 50 -12 6z"/>
<path d="M5761 4335 c2 -33 3 -35 6 -10 2 17 11 35 20 42 13 10 13 12 -6 10
-18 -1 -21 -7 -20 -42z"/>
<path d="M5954 4345 c1 -31 5 -41 21 -43 18 -4 19 -3 3 10 -9 7 -19 27 -21 43
-3 21 -4 18 -3 -10z"/>
<path d="M6008 4344 c-2 -19 0 -37 4 -40 4 -3 8 13 8 35 0 51 -6 53 -12 5z"/>
<path d="M6365 4370 c3 -5 8 -10 11 -10 2 0 4 5 4 10 0 6 -5 10 -11 10 -5 0
-7 -4 -4 -10z"/>
<path d="M6414 4366 c-14 -36 23 -83 46 -60 8 8 4 10 -12 10 -18 -1 -24 5 -26
28 -3 26 -1 28 22 24 14 -3 26 -1 26 3 0 15 -50 10 -56 -5z"/>
<path d="M6828 4348 c-2 -27 -7 -33 -25 -32 -12 0 -20 -3 -17 -8 3 -4 16 -7
29 -6 22 2 25 7 25 40 0 47 -8 50 -12 6z"/>
<path d="M6871 4336 l2 -41 6 35 c4 26 12 36 28 38 18 3 22 -2 26 -35 l4 -38
-1 40 c-1 38 -3 40 -33 41 -32 1 -33 0 -32 -40z"/>
<path d="M6973 4340 c0 -25 2 -35 4 -22 2 12 2 32 0 45 -2 12 -4 2 -4 -23z"/>
<path d="M7015 4370 c-4 -6 -4 -14 -1 -17 3 -4 6 -1 6 5 0 15 36 16 43 2 3 -6
4 -5 3 2 -3 17 -42 23 -51 8z"/>
<path d="M7101 4335 c2 -33 3 -35 6 -10 2 17 11 35 20 42 13 10 13 12 -6 10
-18 -1 -21 -7 -20 -42z"/>
<path d="M5116 4333 c-6 -15 -8 -15 -16 -3 -6 8 -10 11 -10 5 0 -5 4 -16 9
-24 7 -11 11 -9 21 9 6 12 10 24 7 26 -2 3 -8 -3 -11 -13z"/>
<path d="M6331 4341 c-18 -12 -6 -41 16 -40 17 1 17 2 0 6 -24 6 -16 26 14 34
20 6 21 7 4 8 -11 0 -26 -3 -34 -8z"/>
<path d="M7172 4320 c0 -14 2 -19 5 -12 2 6 2 18 0 25 -3 6 -5 1 -5 -13z"/>
<path d="M5440 4322 c0 -6 -8 -13 -17 -15 -16 -4 -16 -5 -1 -6 18 -1 34 16 24
26 -3 4 -6 1 -6 -5z"/>
<path d="M7014 4318 c2 -7 13 -13 26 -13 13 0 24 6 26 13 1 7 0 8 -3 2 -2 -5
-13 -10 -23 -10 -10 0 -21 5 -23 10 -3 6 -4 5 -3 -2z"/>
<path d="M458 4214 c-27 -13 -48 -28 -48 -33 0 -5 24 -21 54 -37 l55 -28 38
18 c21 9 49 25 62 33 l25 16 -55 28 c-66 34 -72 34 -131 3z m107 -6 c25 -12
45 -24 45 -28 0 -3 -20 -15 -44 -28 l-43 -23 -47 22 c-25 13 -46 26 -46 29 0
5 72 45 87 49 1 1 23 -9 48 -21z"/>
<path d="M406 4131 c-3 -5 21 -23 54 -40 l60 -32 60 32 c56 29 69 49 34 49 -8
0 -13 -4 -10 -9 4 -5 -14 -21 -39 -34 l-45 -26 -45 26 c-25 13 -43 29 -39 34
3 5 -2 9 -10 9 -8 0 -17 -4 -20 -9z"/>
<path d="M412 4081 c-10 -6 3 -18 42 -40 31 -17 59 -31 64 -31 5 0 34 14 66
31 41 22 54 34 45 40 -9 5 -17 3 -22 -7 -4 -8 -26 -23 -48 -34 l-39 -20 -39
20 c-22 11 -44 26 -48 34 -5 9 -13 12 -21 7z"/>
<path d="M6248 3912 c-15 -2 -39 -17 -54 -35 -33 -39 -28 -90 13 -126 31 -27
46 -11 16 17 -10 9 -14 14 -9 10 6 -5 17 -8 26 -8 11 0 9 5 -8 18 -18 14 -23
26 -20 52 3 33 3 33 58 33 l55 0 3 -36 c2 -25 -2 -39 -16 -49 -13 -9 -17 -20
-12 -38 l6 -25 33 33 c29 29 33 38 28 69 -10 59 -57 93 -119 85z"/>
<path d="M5690 3880 c0 -12 90 -79 106 -80 15 0 104 69 104 80 0 6 -45 10
-105 10 -63 0 -105 -4 -105 -10z"/>
<path d="M5692 3803 l3 -48 100 0 100 0 3 49 3 49 -50 -37 c-55 -41 -60 -40
-129 11 l-33 25 3 -49z"/>
<path d="M464 3646 c-35 -15 -64 -51 -64 -77 0 -10 12 -31 26 -48 17 -21 23
-37 19 -51 -8 -24 -2 -25 33 -6 15 8 45 18 66 21 43 7 96 52 96 82 0 29 -29
64 -66 79 -41 17 -70 17 -110 0z m133 -22 c56 -35 33 -106 -39 -124 -24 -5
-55 -14 -70 -19 -22 -7 -28 -6 -28 6 0 8 -10 23 -22 32 -45 37 -17 110 47 124
30 7 87 -3 112 -19z"/>
<path d="M5321 3375 c-62 -19 -118 -78 -137 -142 -14 -48 -14 -58 0 -106 19
-67 75 -123 141 -143 40 -12 160 -14 705 -14 545 0 665 2 705 14 66 20 122 76
141 143 14 48 14 58 0 106 -19 67 -75 123 -141 143 -69 20 -1347 20 -1414 -1z
m232 -151 l13 -25 14 26 c24 44 45 28 48 -38 3 -52 1 -57 -18 -57 -14 0 -20 7
-21 23 0 12 -3 16 -6 10 -2 -7 -11 -13 -18 -13 -7 0 -16 6 -18 13 -3 6 -6 2
-6 -10 -1 -13 -7 -23 -16 -23 -12 0 -15 13 -15 60 0 67 18 81 43 34z m547 11
c0 -8 7 -15 15 -15 8 0 15 -7 15 -15 0 -8 -7 -15 -15 -15 -8 0 -15 -7 -15 -16
0 -25 33 -12 40 16 4 16 14 26 28 28 33 5 52 -15 52 -53 0 -28 -4 -33 -31 -39
-17 -3 -36 -3 -42 1 -6 4 -25 7 -42 7 -25 1 -31 5 -33 29 -4 37 -22 35 -22 -3
0 -20 -5 -30 -15 -30 -9 0 -15 9 -15 24 0 14 -4 28 -10 31 -6 4 -10 -7 -10
-24 0 -24 -4 -31 -20 -31 -17 0 -20 7 -20 46 l0 46 43 -2 c62 -3 67 -1 67 15
0 8 7 15 15 15 8 0 15 -7 15 -15z m270 0 c0 -8 5 -15 10 -15 6 0 10 -7 10 -15
0 -8 -4 -15 -10 -15 -5 0 -10 -7 -10 -15 0 -8 5 -15 10 -15 6 0 10 -7 10 -16
0 -11 -8 -14 -27 -12 -21 2 -29 9 -31 28 -2 21 -8 25 -34 24 -32 -1 -48 -17
-29 -29 6 -3 11 -1 11 4 0 6 9 11 20 11 28 0 25 -28 -4 -41 -34 -16 -66 3 -66
39 0 16 5 33 12 40 15 15 51 15 65 1 9 -9 14 -5 19 15 7 28 44 38 44 11z
m-650 -35 c24 -45 -18 -93 -62 -69 -21 11 -25 74 -5 82 28 12 57 6 67 -13z
m114 14 c27 -10 20 -37 -9 -32 -20 4 -25 1 -25 -15 0 -16 3 -18 12 -9 17 17
38 15 38 -3 0 -19 -34 -37 -57 -28 -23 8 -33 23 -33 49 0 36 33 54 74 38z
m104 -6 c21 -21 15 -67 -12 -79 -34 -16 -66 3 -66 39 0 33 16 52 45 52 12 0
26 -5 33 -12z m541 -5 c10 -17 10 -17 11 0 0 13 8 17 35 17 28 0 35 -4 35 -20
0 -11 -7 -20 -15 -20 -9 0 -15 -9 -15 -25 0 -18 -5 -25 -20 -25 -12 0 -20 7
-21 18 -1 15 -2 15 -6 1 -5 -21 -41 -31 -65 -18 -21 11 -25 74 -5 82 26 11 56
6 66 -10z"/>
<path d="M5894 3179 c-3 -6 -1 -16 5 -22 8 -8 11 -5 11 11 0 24 -5 28 -16 11z"/>
</g>
</svg>
